<svg xmlns="http://www.w3.org/2000/svg" width="39.397" height="39.388" viewBox="0 0 39.397 39.388"><defs><style>.a{fill:#fff;}</style></defs><path class="a" d="M19.7,12.393a10.1,10.1,0,1,0,10.1,10.1A10.083,10.083,0,0,0,19.7,12.393Zm0,16.664a6.565,6.565,0,1,1,6.565-6.565A6.577,6.577,0,0,1,19.7,29.057ZM32.563,11.979a2.355,2.355,0,1,1-2.355-2.355A2.35,2.35,0,0,1,32.563,11.979Zm6.688,2.391c-.149-3.155-.87-5.95-3.182-8.253s-5.1-3.023-8.253-3.182c-3.252-.185-13-.185-16.251,0-3.146.149-5.941.87-8.253,3.173S.29,11.206.132,14.361c-.185,3.252-.185,13,0,16.251.149,3.155.87,5.95,3.182,8.253s5.1,3.023,8.253,3.182c3.252.185,13,.185,16.251,0,3.155-.149,5.95-.87,8.253-3.182s3.023-5.1,3.182-8.253C39.437,27.36,39.437,17.622,39.252,14.37ZM35.051,34.1a6.647,6.647,0,0,1-3.744,3.744c-2.593,1.028-8.745.791-11.61.791s-9.026.229-11.61-.791A6.647,6.647,0,0,1,4.342,34.1c-1.028-2.593-.791-8.745-.791-11.61s-.229-9.026.791-11.61A6.647,6.647,0,0,1,8.086,7.137c2.593-1.028,8.745-.791,11.61-.791s9.026-.229,11.61.791a6.647,6.647,0,0,1,3.744,3.744c1.028,2.593.791,8.745.791,11.61S36.079,31.518,35.051,34.1Z" transform="translate(0.007 -2.797)"/></svg>