<svg xmlns="http://www.w3.org/2000/svg" width="35.442" height="35.442" viewBox="0 0 35.442 35.442"><defs><style>.a{fill:#fff;}</style></defs><path class="a" d="M25.84,21.238c-.444-.222-2.609-1.28-3.013-1.427s-.7-.222-.994.222-1.139,1.424-1.394,1.716-.515.31-.954.111a11.985,11.985,0,0,1-3.549-2.193,13.4,13.4,0,0,1-2.451-3.057c-.257-.443-.028-.687.192-.908.2-.2.444-.509.666-.772a3.744,3.744,0,0,0,.439-.732.812.812,0,0,0-.037-.774c-.111-.222-.992-2.392-1.362-3.258s-.719-.753-.992-.753c-.254-.022-.548-.022-.843-.022a1.665,1.665,0,0,0-1.177.53,4.93,4.93,0,0,0-1.543,3.655,8.64,8.64,0,0,0,1.8,4.541c.22.288,3.109,4.718,7.531,6.623,1.054.443,1.875.709,2.516.929a6.11,6.11,0,0,0,2.776.179c.848-.134,2.609-1.065,2.977-2.106a3.655,3.655,0,0,0,.266-2.1c-.109-.2-.4-.31-.842-.509M17.811,32.119h-.024a14.773,14.773,0,0,1-7.465-2.038l-.532-.316L4.253,31.2l1.484-5.383-.353-.554A14.646,14.646,0,0,1,28.2,7.2a14.454,14.454,0,0,1,4.3,10.322A14.664,14.664,0,0,1,17.82,32.12M30.3,5.093A17.931,17.931,0,0,0,17.787,0,17.558,17.558,0,0,0,2.5,26.342L0,35.442,9.355,33a17.813,17.813,0,0,0,8.432,2.137H17.8A17.632,17.632,0,0,0,35.442,17.572,17.417,17.417,0,0,0,30.28,5.151"/></svg>