<svg xmlns="http://www.w3.org/2000/svg" width="45" height="36.548" viewBox="0 0 45 36.548"><defs><style>.a{fill:#fff;}</style></defs><path class="a" d="M40.374,13.334c.029.4.029.8.029,1.2,0,12.192-9.28,26.24-26.24,26.24A26.063,26.063,0,0,1,0,36.634a19.079,19.079,0,0,0,2.227.114,18.47,18.47,0,0,0,11.45-3.94,9.239,9.239,0,0,1-8.623-6.4,11.631,11.631,0,0,0,1.742.143,9.754,9.754,0,0,0,2.427-.314,9.224,9.224,0,0,1-7.4-9.051v-.114A9.288,9.288,0,0,0,6,18.246,9.236,9.236,0,0,1,3.141,5.911a26.215,26.215,0,0,0,19.016,9.651,10.411,10.411,0,0,1-.228-2.113A9.232,9.232,0,0,1,37.89,7.138a18.158,18.158,0,0,0,5.853-2.227,9.2,9.2,0,0,1-4.055,5.082A18.489,18.489,0,0,0,45,8.566a19.825,19.825,0,0,1-4.626,4.768Z" transform="translate(0 -4.226)"/></svg>