<svg xmlns="http://www.w3.org/2000/svg" width="39.095" height="45" viewBox="0 0 39.095 45"><defs><style>.a{fill:#fff;}</style></defs><path class="a" d="M23.494.038C25.95,0,28.388.019,30.825,0a11.679,11.679,0,0,0,3.281,7.819,13.223,13.223,0,0,0,7.95,3.356v7.556a20.069,20.069,0,0,1-7.875-1.819,23.166,23.166,0,0,1-3.038-1.744c-.019,5.475.019,10.95-.038,16.406a14.321,14.321,0,0,1-2.531,7.388,13.969,13.969,0,0,1-11.081,6.019,13.672,13.672,0,0,1-7.65-1.931A14.139,14.139,0,0,1,3,32.344c-.037-.937-.056-1.875-.019-2.794A14.115,14.115,0,0,1,19.35,17.025c.038,2.775-.075,5.55-.075,8.325a6.433,6.433,0,0,0-8.213,3.975,7.438,7.438,0,0,0-.262,3.019,6.381,6.381,0,0,0,6.563,5.381,6.3,6.3,0,0,0,5.194-3.019,4.326,4.326,0,0,0,.769-1.987c.188-3.356.112-6.694.131-10.05.019-7.556-.019-15.094.038-22.631Z" transform="translate(-2.961)"/></svg>