<svg xmlns="http://www.w3.org/2000/svg" width="30" height="30" viewBox="0 0 30 30"><defs><style>.a{fill:#fff;}</style></defs><path class="a" d="M33.333,25.833a18.934,18.934,0,0,1-5.95-.95,1.7,1.7,0,0,0-1.7.4L22.017,28.95A25.124,25.124,0,0,1,11.033,17.983L14.7,14.3a1.636,1.636,0,0,0,.417-1.683,18.934,18.934,0,0,1-.95-5.95A1.672,1.672,0,0,0,12.5,5H6.667A1.672,1.672,0,0,0,5,6.667,28.331,28.331,0,0,0,33.333,35,1.672,1.672,0,0,0,35,33.333V27.5a1.672,1.672,0,0,0-1.667-1.667ZM20,5V21.667l5-5H35V5Z" transform="translate(-5 -5)"/></svg>